<svg xmlns="http://www.w3.org/2000/svg" viewBox="0 0 927.87 235.05"><defs><style>.cls-1{fill:#008cfa;}.cls-2{fill:#002e6d;}</style></defs><title>Asset 1</title><g id="Layer_2" data-name="Layer 2"><g id="Layer_1-2" data-name="Layer 1"><path class="cls-1" d="M0,0V235.05H235.05V0ZM112.1,188.05,23.51,153.92l19.78-11.58a23.51,23.51,0,0,1,20.32-1.65l88.6,34.13L132.42,186.4A23.47,23.47,0,0,1,112.1,188.05Zm29.61-46.84L53.12,107.08,72.9,95.5a23.47,23.47,0,0,1,20.32-1.65L181.82,128,162,139.56A23.53,23.53,0,0,1,141.71,141.21Zm29.73-46.85L82.85,60.23l19.78-11.58A23.51,23.51,0,0,1,123,47l88.6,34.13L191.76,92.71A23.51,23.51,0,0,1,171.44,94.36Z"/><path class="cls-2" d="M297.6,211.14h-7.48V171.83H276.68v-6.41H311v6.41H297.6Z"/><path class="cls-2" d="M368.5,211.14H342.64V165.42H368.5v6.31H350.11v12.45h17.24v6.25H350.11v14.36H368.5Z"/><path class="cls-2" d="M422.43,171.17a12.31,12.31,0,0,0-10.13,4.57q-3.69,4.56-3.69,12.6,0,8.41,3.55,12.73t10.27,4.31a26.68,26.68,0,0,0,5.63-.58c1.81-.38,3.7-.88,5.66-1.48v6.41a34.45,34.45,0,0,1-12.2,2q-10,0-15.41-6.08t-5.38-17.4a28.11,28.11,0,0,1,2.61-12.48,18.52,18.52,0,0,1,7.55-8.19,22.83,22.83,0,0,1,11.6-2.85,28.8,28.8,0,0,1,12.95,2.94l-2.69,6.22a39.46,39.46,0,0,0-4.89-1.92A17.72,17.72,0,0,0,422.43,171.17Z"/><path class="cls-2" d="M504.22,211.14h-7.5V190.53H475.63v20.61h-7.47V165.42h7.47v18.7h21.09v-18.7h7.5Z"/><path class="cls-2" d="M578.94,211.14h-9.16L547.29,174.7H547l.16,2q.43,5.82.44,10.63v23.77h-6.79V165.42h9.07l22.42,36.24h.19c0-.48-.13-2.22-.25-5.24s-.19-5.36-.19-7v-24h6.85Z"/><path class="cls-2" d="M656.19,188.21q0,11.17-5.58,17.36t-15.81,6.19q-10.34,0-15.9-6.14t-5.54-17.47q0-11.33,5.58-17.39t15.93-6.06q10.2,0,15.76,6.16T656.19,188.21Zm-34.9,0q0,8.44,3.41,12.81t10.1,4.36q6.68,0,10.06-4.31t3.39-12.86c0-5.6-1.12-9.86-3.36-12.75s-5.58-4.35-10-4.35-7.87,1.45-10.15,4.35S621.29,182.61,621.29,188.21Z"/><path class="cls-2" d="M690.61,211.14V165.42h7.47v39.31h19.36v6.41Z"/><path class="cls-2" d="M790.5,188.21q0,11.17-5.58,17.36t-15.81,6.19q-10.35,0-15.9-6.14t-5.55-17.47q0-11.33,5.58-17.39t15.94-6.06q10.19,0,15.76,6.16T790.5,188.21Zm-34.9,0q0,8.44,3.41,12.81t10.1,4.36q6.66,0,10-4.31t3.4-12.86c0-5.6-1.12-9.86-3.36-12.75s-5.59-4.35-10-4.35-7.87,1.45-10.15,4.35S755.6,182.61,755.6,188.21Z"/><path class="cls-2" d="M843.62,186.34h16.82v22.95a48.89,48.89,0,0,1-7.93,1.91,56.76,56.76,0,0,1-8.21.56q-10.38,0-16-6.14t-5.63-17.34q0-11,6.35-17.28t17.48-6.24a34.08,34.08,0,0,1,13.57,2.75l-2.62,6.23a26.41,26.41,0,0,0-11.14-2.57q-7.31,0-11.56,4.6t-4.26,12.57q0,8.39,3.83,12.74t11,4.36a36.49,36.49,0,0,0,7.75-.9V192.75h-9.47Z"/><path class="cls-2" d="M908.92,186.28l10.82-20.86h8.13l-15.23,28v17.73h-7.5V193.66L890,165.42h8.13Z"/><path class="cls-1" d="M268.86,99.12h14.47c1.9,14.65,7.75,27.05,32.56,27.05,15.85,0,28.08-9.3,28.08-23.26s-6.37-19.81-29.8-23.6C288.33,75.35,273,67.25,273,45.38c0-19,16.36-33.42,39.62-33.42,24.63,0,40,12.05,42.38,33.93H341.56C338.63,30.39,329.67,24,312.62,24,295.74,24,287,32.46,287,44c0,12.06,4.48,18.26,29.63,22,27.39,4.3,41.86,12.57,41.86,35.83,0,20.67-18.09,36.35-42.55,36.35C283,138.23,271.1,120.14,268.86,99.12Z"/><path class="cls-1" d="M377.39,18.33a9.48,9.48,0,1,1,9.48,9.47A9.56,9.56,0,0,1,377.39,18.33ZM380,46.58h14.3v90.1H380Z"/><path class="cls-1" d="M420.46,3.52h14.47V136.68H420.46Z"/><path class="cls-1" d="M460.76,3.52h14.3V88.1l37.38-41.52h16.71L490.57,88.44l41.86,48.24H515L475.06,90v46.69h-14.3Z"/><path class="cls-2" d="M547.24,13.51h37c23.6,0,43.07,9.64,43.07,34.28v.69c0,20.32-13.61,30.32-30.5,33.59l37.73,54.61H617.87L581.18,83.1H562.23v53.58h-15Zm38.07,57.71c17.57,0,27.05-7.58,27.05-22.74v-.69c0-16.71-10.34-22.22-27.05-22.22H562.23V71.22Z"/><path class="cls-2" d="M638.2,92.4V91C638.2,64,657,45,682.47,45s44.27,18.78,44.27,45.82v1.38c0,27.22-18.77,46-44.44,46S638.2,118.76,638.2,92.4Zm73.73,0V91.2c0-20.85-11.54-34.28-29.46-34.28C664.38,56.92,653,70.35,653,91V92.4c0,20.5,11.2,33.94,29.46,33.94C700.56,126.34,711.93,112.73,711.93,92.4Z"/><path class="cls-2" d="M741.56,111.7c0-20.85,22.05-27.91,45.13-27.91h12.92V77.25c0-14.3-5.51-20.33-19.29-20.33-12.41,0-19.3,5.17-20.68,16.19h-14.3C747.24,52.61,763.61,45,781,45c17.23,0,32.91,7.06,32.91,32.22v59.43h-14.3V125.31c-6.72,8.44-14.82,12.92-28.08,12.92C754.82,138.23,741.56,130.13,741.56,111.7Zm58.05-6.55V94h-12.4c-18.09,0-31.36,4.47-31.36,17.74,0,9.3,4.48,15.16,17.06,15.16C788.07,126.86,799.61,119.11,799.61,105.15Z"/><path class="cls-2" d="M831.82,93.44V92.06c0-27.56,17.23-47,42-47,15,0,24.29,7.24,29.46,16V3.52h14.3V136.68h-14.3V121.17c-5.17,8.79-17.74,17.06-30.83,17.06C848.88,138.23,831.82,121.52,831.82,93.44Zm72-1.21V90.85c0-23.08-11-33.93-28.6-33.93-17.91,0-28.59,12.57-28.59,34.45v1.38c0,22.74,12.23,33.59,27.39,33.59C890.74,126.34,903.83,115.32,903.83,92.23Z"/></g></g></svg>